<?xml version="1.0" encoding="utf-8"?>
<!-- Generator: Adobe Illustrator 24.1.3, SVG Export Plug-In . SVG Version: 6.00 Build 0)  -->
<svg version="1.1" id="Layer_2" xmlns="http://www.w3.org/2000/svg" xmlns:xlink="http://www.w3.org/1999/xlink" x="0px" y="0px"
	 viewBox="0 0 1024 1024" style="enable-background:new 0 0 1024 1024;" xml:space="preserve">
<g>
	<g>
		<path d="M655.44,239.8l-134.22-4.02c-1.71-0.05-3.36,0.87-4.57,2.55l-99.4,138.35l-99.41-138.35c-1.21-1.68-2.86-2.6-4.57-2.55
			l-134.22,4.02c-5.52,0.16-8.2,9.46-4.3,14.89l165.07,229.75L174.77,714.19c-3.97,5.53-1.11,14.98,4.5,14.89l138.73-2.27
			c1.64-0.03,3.2-0.94,4.36-2.55l94.89-132.07l94.89,132.07c1.16,1.61,2.72,2.53,4.36,2.55l138.73,2.27
			c5.62,0.09,8.48-9.36,4.5-14.89L494.67,484.44l165.07-229.75C663.64,249.26,660.96,239.97,655.44,239.8z"/>
		<path d="M850.13,582.2h-52.52c-13.05,10.64-33.74,16.43-62.06,17.38v35.62c14-0.38,29.28-4.65,45.83-12.82v157.58
			c0,2.66-0.32,5.41-0.96,8.26h70.66c-0.64-2.85-0.96-5.51-0.96-7.98V582.2z"/>
	</g>
	<path d="M903.86,0H120.15C55.61,0,3.09,52.51,3.09,117.05v789.9C3.09,971.5,55.61,1024,120.15,1024h783.71
		c64.54,0,117.05-52.5,117.05-117.05v-789.9C1020.91,52.51,968.4,0,903.86,0z M933.68,906.95c0,16.44-13.38,29.82-29.82,29.82
		H120.15c-16.45,0-29.82-13.37-29.82-29.82v-789.9c0-16.44,13.38-29.82,29.82-29.82h783.71c16.44,0,29.82,13.38,29.82,29.82V906.95z
		"/>
</g>
</svg>
